<?xml version="1.0" encoding="utf-8"?>
<svg xmlns="http://www.w3.org/2000/svg" viewBox="0 -0.0072 94.3538 66.0224" width="94.3538px" height="66.0224px">
  <defs>
    <linearGradient id="paint0_linear_31_29" x1="21.713" y1="21.8303" x2="82.6345" y2="21.8303" gradientUnits="userSpaceOnUse">
      <stop stop-color="#88C1FF"/>
      <stop offset="0.0001" stop-color="#126DFF"/>
    </linearGradient>
    <linearGradient id="paint1_linear_31_29" x1="32.9561" y1="16.6956" x2="89.4867" y2="16.6956" gradientUnits="userSpaceOnUse">
      <stop stop-color="#88C1FF"/>
      <stop offset="0.0001" stop-color="#126DFF"/>
    </linearGradient>
    <linearGradient id="paint2_linear_31_29" x1="0" y1="44.8713" x2="94.3538" y2="44.8713" gradientUnits="userSpaceOnUse">
      <stop stop-color="#88C1FF"/>
      <stop offset="0.0001" stop-color="#81BCFF"/>
      <stop offset="0.0002" stop-color="#126DFF"/>
    </linearGradient>
  </defs>
  <path fill-rule="evenodd" clip-rule="evenodd" d="M22.9684 29.374C28.715 22.7058 36.6051 18.2672 45.2701 16.828C53.9352 15.3889 62.8287 17.04 70.4081 21.495C61.8766 17.8099 52.3267 17.2509 43.4264 19.9155C34.5261 22.5801 26.8409 28.2989 21.713 36.0734C30.4708 29.6403 40.9291 25.9534 51.7703 25.4772C62.6115 25.001 73.3505 27.7568 82.6345 33.3974C81.5034 26.5402 78.0982 20.2676 72.9712 15.597C67.8441 10.9263 61.2958 8.13152 54.3883 7.66573C47.4807 7.19995 40.619 9.09053 34.9159 13.0309C29.2127 16.9712 25.0027 22.7303 22.9684 29.374Z" fill="url(#paint0_linear_31_29)" transform="matrix(1, 0, 0, 1, 0, -1.7763568394002505e-15)"/>
  <path fill-rule="evenodd" clip-rule="evenodd" d="M36.2708 9.44365C43.1676 6.10139 51.0124 5.28922 58.4434 7.14811C65.8745 9.00701 72.4226 13.4196 76.9511 19.6199C71.3927 13.7083 63.943 9.94406 55.9023 8.98406C47.8616 8.02406 39.7404 9.92929 32.9561 14.3673C42.183 12.2642 51.8234 12.9489 60.6635 16.3352C69.5036 19.7216 77.1481 25.6581 82.6345 33.3974C82.7941 33.2442 82.9334 33.071 83.0488 32.882C82.9128 33.0559 82.7767 33.2297 82.6345 33.3974C84.2712 32.8551 85.7512 31.9193 86.9454 30.6716C88.1397 29.4239 89.0121 27.9021 89.4867 26.2386C88.6765 27.3872 86.8893 28.4241 85.3432 29.2126C87.6073 24.5954 88.0854 19.2993 86.6852 14.3486C86.5244 16.9439 84.8299 20.2657 83.1663 23.0845C82.4371 17.9616 80.2514 13.1587 76.8714 9.25178C73.4913 5.34487 69.0604 2.49985 64.1101 1.05795C59.1598 -0.38395 53.9002 -0.361508 48.9623 1.12258C44.0244 2.60668 39.6177 5.48941 36.2708 9.42502" fill="url(#paint1_linear_31_29)" transform="matrix(1, 0, 0, 1, 0, -1.7763568394002505e-15)"/>
  <path fill-rule="evenodd" clip-rule="evenodd" d="M82.9561 42.3443C76.1616 47.0423 69.1528 51.3885 61.9295 55.3829C74.9619 63.7276 81.9707 59.3814 82.9561 42.3443ZM54.2239 57.2455C74.0631 77.1635 94.3538 58.9468 94.3538 44.1511C94.3538 29.3554 76.4193 44.1511 54.2239 44.1511C39.7526 44.1511 27.0748 37.8429 20.0124 37.5821C19.1209 33.1366 16.5203 29.2229 12.7743 26.6892C9.02821 24.1556 4.43852 23.2062 0 24.0469C6.02969 29.1816 10.6865 31.6651 15.201 38.2092C6.66048 33.1366 3.09215 34.0493 3.09215 34.0493C2.95802 35.5482 3.15032 37.0585 3.65571 38.4754C4.16109 39.8923 4.96746 41.1818 6.01887 42.2545C7.07028 43.3272 8.34155 44.1575 9.74451 44.6876C11.1475 45.2177 12.6485 45.4351 14.1435 45.3246C15.1948 59.8843 34.9227 76.6109 54.2239 57.2269V57.2455ZM46.543 55.4139C33.5106 63.7586 26.5018 59.4124 25.5164 42.3754C32.2985 47.0527 39.3074 51.3989 46.543 55.4139Z" fill="url(#paint2_linear_31_29)" transform="matrix(1, 0, 0, 1, 0, -1.7763568394002505e-15)"/>
</svg>