<?xml version="1.0" encoding="utf-8"?>
<svg xmlns="http://www.w3.org/2000/svg" viewBox="0 -0.0072 410.0258 66.0224" width="410.026px" height="66.0224px">
  <defs>
    <linearGradient id="paint0_linear_31_29" x1="21.713" y1="21.8303" x2="82.6345" y2="21.8303" gradientUnits="userSpaceOnUse">
      <stop stop-color="#88C1FF"/>
      <stop offset="0.0001" stop-color="#126DFF"/>
    </linearGradient>
    <linearGradient id="paint1_linear_31_29" x1="32.9561" y1="16.6956" x2="89.4867" y2="16.6956" gradientUnits="userSpaceOnUse">
      <stop stop-color="#88C1FF"/>
      <stop offset="0.0001" stop-color="#126DFF"/>
    </linearGradient>
    <linearGradient id="paint2_linear_31_29" x1="0" y1="44.8713" x2="94.3538" y2="44.8713" gradientUnits="userSpaceOnUse">
      <stop stop-color="#88C1FF"/>
      <stop offset="0.0001" stop-color="#81BCFF"/>
      <stop offset="0.0002" stop-color="#126DFF"/>
    </linearGradient>
  </defs>
  <path fill-rule="evenodd" clip-rule="evenodd" d="M22.9684 29.374C28.715 22.7058 36.6051 18.2672 45.2701 16.828C53.9352 15.3889 62.8287 17.04 70.4081 21.495C61.8766 17.8099 52.3267 17.2509 43.4264 19.9155C34.5261 22.5801 26.8409 28.2989 21.713 36.0734C30.4708 29.6403 40.9291 25.9534 51.7703 25.4772C62.6115 25.001 73.3505 27.7568 82.6345 33.3974C81.5034 26.5402 78.0982 20.2676 72.9712 15.597C67.8441 10.9263 61.2958 8.13152 54.3883 7.66573C47.4807 7.19995 40.619 9.09053 34.9159 13.0309C29.2127 16.9712 25.0027 22.7303 22.9684 29.374Z" fill="url(#paint0_linear_31_29)"/>
  <path fill-rule="evenodd" clip-rule="evenodd" d="M36.2708 9.44365C43.1676 6.10139 51.0124 5.28922 58.4434 7.14811C65.8745 9.00701 72.4226 13.4196 76.9511 19.6199C71.3927 13.7083 63.943 9.94406 55.9023 8.98406C47.8616 8.02406 39.7404 9.92929 32.9561 14.3673C42.183 12.2642 51.8234 12.9489 60.6635 16.3352C69.5036 19.7216 77.1481 25.6581 82.6345 33.3974C82.7941 33.2442 82.9334 33.071 83.0488 32.882C82.9128 33.0559 82.7767 33.2297 82.6345 33.3974C84.2712 32.8551 85.7512 31.9193 86.9454 30.6716C88.1397 29.424 89.0121 27.9021 89.4867 26.2386C88.6765 27.3872 86.8893 28.4241 85.3432 29.2126C87.6073 24.5954 88.0854 19.2993 86.6852 14.3486C86.5244 16.9439 84.8299 20.2657 83.1663 23.0845C82.4371 17.9616 80.2514 13.1587 76.8714 9.25178C73.4913 5.34487 69.0604 2.49985 64.1101 1.05795C59.1598 -0.38395 53.9002 -0.361508 48.9623 1.12258C44.0244 2.60668 39.6177 5.48941 36.2708 9.42502" fill="url(#paint1_linear_31_29)"/>
  <path fill-rule="evenodd" clip-rule="evenodd" d="M82.9561 42.3443C76.1616 47.0423 69.1528 51.3885 61.9295 55.3829C74.9619 63.7276 81.9707 59.3814 82.9561 42.3443ZM54.2239 57.2455C74.0631 77.1635 94.3538 58.9468 94.3538 44.1511C94.3538 29.3554 76.4193 44.1511 54.2239 44.1511C39.7526 44.1511 27.0748 37.8429 20.0124 37.5821C19.1209 33.1366 16.5203 29.2229 12.7743 26.6892C9.02821 24.1556 4.43852 23.2062 0 24.0469C6.02969 29.1816 10.6865 31.6651 15.201 38.2092C6.66048 33.1366 3.09215 34.0493 3.09215 34.0493C2.95802 35.5482 3.15032 37.0585 3.65571 38.4754C4.16109 39.8923 4.96746 41.1818 6.01887 42.2545C7.07028 43.3272 8.34155 44.1575 9.74451 44.6876C11.1475 45.2177 12.6485 45.4351 14.1435 45.3246C15.1948 59.8843 34.9227 76.6109 54.2239 57.2269V57.2455ZM46.543 55.4139C33.5106 63.7586 26.5018 59.4124 25.5164 42.3754C32.2985 47.0527 39.3074 51.3989 46.543 55.4139Z" fill="url(#paint2_linear_31_29)"/>
  <path d="M127.464 29.2623C128.093 28.9911 128.742 28.773 129.406 28.6103C130.241 28.3826 131.102 28.2677 131.967 28.2689C133.266 28.228 134.559 28.4606 135.764 28.9518C136.209 29.1253 136.608 29.4 136.93 29.7544C137.252 30.1088 137.488 30.5333 137.619 30.9945C138.318 33.4284 138.955 35.6636 139.53 37.6815C140.105 39.6993 140.674 41.6613 141.225 43.5364C141.775 45.4115 142.325 47.3921 142.863 49.4534H143.111C143.688 46.0262 144.201 42.7437 144.651 39.6062C145.1 36.4687 145.533 33.3643 145.949 30.2929C146.357 27.2382 146.753 24.0841 147.118 20.8803C148.401 20.1556 149.846 19.7709 151.317 19.7627C152.527 19.7261 153.724 20.027 154.774 20.632C155.267 20.94 155.664 21.3812 155.919 21.9049C156.173 22.4287 156.276 23.0139 156.215 23.5936C156.19 24.8663 156.097 26.1368 155.937 27.3996C155.751 29.0325 155.498 30.9014 155.164 32.9876C154.83 35.0738 154.459 37.2841 154.026 39.5565C153.593 41.829 153.129 44.0455 152.641 46.2124C152.152 48.3793 151.651 50.3475 151.156 52.0984C150.77 53.5421 150.295 54.9604 149.734 56.3452C148.959 56.9164 148.078 57.326 147.143 57.5498C145.921 57.9069 144.655 58.0846 143.383 58.0775C141.938 58.105 140.501 57.8585 139.147 57.3511C137.951 56.8792 137.232 56.2294 136.988 55.4015C136.576 54.2011 136.114 52.7959 135.603 51.1857C135.084 49.5776 134.564 47.8143 134.026 45.8896C133.488 43.9648 132.956 42.0028 132.424 39.9787C131.975 41.9573 131.48 43.969 130.94 46.0137C130.408 48.0627 129.895 49.9688 129.4 51.7445C128.905 53.5202 128.454 55.0538 128.04 56.3328C127.311 56.8863 126.484 57.2951 125.603 57.5373C124.436 57.9016 123.219 58.0797 121.998 58.0651C120.522 58.0817 119.055 57.8292 117.669 57.32C116.351 56.8295 115.51 56.1838 115.139 55.4015C114.573 53.9972 114.089 52.5604 113.692 51.0988C113.135 49.174 112.56 46.9699 111.96 44.4677C111.361 41.9656 110.798 39.3579 110.266 36.6322C109.734 33.9065 109.239 31.2553 108.788 28.6724C108.336 26.0896 107.984 23.7675 107.737 21.6999C108.385 21.1742 109.1 20.7378 109.864 20.4023C110.783 19.9792 111.784 19.7671 112.795 19.7814C113.972 19.7305 115.136 20.0449 116.129 20.6817C116.598 21.0532 116.988 21.5166 117.274 22.0438C117.56 22.5711 117.736 23.1511 117.792 23.7488C118.423 27.5486 118.963 30.8083 119.413 33.5278C119.862 36.2472 120.231 38.5797 120.52 40.5251C120.829 42.4664 121.107 44.1511 121.354 45.5791C121.602 47.0072 121.847 48.2965 122.09 49.4472H122.4C122.812 47.7543 123.203 46.1752 123.575 44.7099C123.946 43.2446 124.335 41.7545 124.75 40.2519C125.164 38.7494 125.591 37.1103 126.042 35.3532C126.494 33.596 126.97 31.572 127.464 29.2623Z" fill="white"/>
  <path d="M162.511 47.1003L162.14 40.8914L177.44 38.4948C177.332 37.2816 176.81 36.1431 175.962 35.2724C175.059 34.2852 173.717 33.7885 171.948 33.7885C171.091 33.7621 170.237 33.9139 169.441 34.2345C168.645 34.555 167.924 35.0373 167.322 35.6512C166.085 36.8929 165.43 38.6997 165.349 41.0094L165.659 45.2873C166.021 47.5597 166.988 49.1802 168.559 50.1488C170.24 51.1514 172.17 51.6552 174.125 51.6017C175.771 51.6298 177.412 51.3972 178.986 50.9125C180.27 50.5178 181.513 49.9979 182.696 49.3603C183.321 49.7424 183.84 50.2762 184.205 50.9125C184.589 51.5469 184.793 52.2749 184.793 53.0173C184.801 53.6115 184.674 54.1998 184.423 54.7377C184.171 55.2755 183.8 55.7488 183.339 56.1217C182.168 57.0497 180.795 57.6877 179.332 57.9844C177.419 58.4217 175.462 58.6301 173.5 58.6053C170.554 58.6503 167.635 58.0374 164.954 56.8109C162.474 55.6558 160.399 53.7779 158.998 51.4216C157.555 49.0126 156.834 46.0034 156.834 42.394C156.778 40.0375 157.21 37.6951 158.101 35.5146C158.867 33.6846 160.024 32.046 161.49 30.7151C162.893 29.4663 164.529 28.5084 166.302 27.8963C168.092 27.277 169.974 26.9622 171.868 26.965C174.444 26.9092 176.994 27.4958 179.289 28.6724C181.32 29.7369 183.029 31.3303 184.236 33.2856C185.455 35.323 186.074 37.6649 186.023 40.0408C186.061 40.5726 185.988 41.1064 185.808 41.6079C185.628 42.1094 185.345 42.5675 184.978 42.9528C184.166 43.6634 183.151 44.098 182.078 44.1945L162.511 47.1003Z" fill="white"/>
  <path d="M197.897 33.3477H188.732V17.304C189.277 17.1401 189.833 17.0156 190.396 16.9315C191.193 16.803 192 16.7407 192.808 16.7452C194.576 16.7452 195.856 17.0557 196.66 17.6766C197.464 18.2975 197.897 19.4337 197.897 21.1101V33.3477ZM204.31 26.965C206.848 26.9311 209.354 27.5397 211.596 28.7345C213.803 29.9375 215.606 31.7695 216.778 33.9996C218.13 36.6728 218.788 39.6458 218.689 42.6423C218.689 46.1069 218.021 49.0188 216.685 51.3782C215.384 53.6945 213.416 55.5622 211.039 56.7364C208.381 58.0042 205.465 58.6294 202.523 58.5618C200.298 58.6099 198.08 58.2954 195.955 57.6305C194.334 57.1119 192.788 56.3834 191.354 55.4636C190.559 54.9221 189.886 54.2174 189.382 53.396C188.937 52.6031 188.712 51.7045 188.732 50.7945V31.1808H197.805V50.1364C198.412 50.4719 199.052 50.7424 199.715 50.9436C200.576 51.2001 201.471 51.3257 202.369 51.3161C203.315 51.3541 204.258 51.1786 205.128 50.8025C205.998 50.4264 206.773 49.8594 207.396 49.143C208.633 47.6943 209.262 45.5274 209.283 42.6423C209.303 39.7573 208.685 37.6194 207.427 36.2286C206.815 35.5598 206.064 35.0334 205.227 34.6859C204.391 34.3385 203.489 34.1784 202.585 34.2169C201.372 34.1962 200.169 34.4486 199.066 34.9558C198.117 35.4035 197.226 35.9665 196.413 36.6322L196.166 29.1816C197.28 28.5694 198.447 28.0603 199.654 27.6604C201.147 27.1732 202.71 26.9382 204.279 26.965H204.31Z" fill="white"/>
  <path d="M237.106 41.7731L237.848 36.6322C240.736 36.553 243.617 36.973 246.364 37.8739C248.356 38.5176 250.123 39.7222 251.453 41.3447C252.605 42.899 253.202 44.7974 253.148 46.734C253.148 50.7366 251.668 53.7106 248.708 55.6561C245.747 57.6015 241.532 58.5722 236.061 58.568C235.071 58.568 233.952 58.5245 232.696 58.4438C231.441 58.3631 230.167 58.2141 228.868 58.0092C227.664 57.8258 226.478 57.5349 225.325 57.14C223.185 56.3577 222.115 54.9752 222.115 52.9925V23.3763C222.095 23.0356 222.145 22.6943 222.262 22.3738C222.379 22.0533 222.561 21.7605 222.795 21.5136C223.304 21.0373 223.916 20.6865 224.583 20.4892C226.233 19.9408 227.941 19.5866 229.672 19.4337C231.713 19.2256 233.762 19.122 235.813 19.1232C240.917 19.1232 244.857 20.0111 247.631 21.7868C250.406 23.5626 251.794 26.2531 251.794 29.8583C251.841 31.7039 251.229 33.5056 250.068 34.9372C248.728 36.4678 246.982 37.5852 245.034 38.1595C242.448 38.9612 239.75 39.3385 237.044 39.2771L236.617 35.1234C238.588 35.1234 240.047 34.7323 240.996 33.95C241.481 33.5362 241.863 33.014 242.111 32.4253C242.359 31.8366 242.466 31.1977 242.424 30.5599C242.448 29.9364 242.31 29.3174 242.023 28.7635C241.737 28.2096 241.313 27.7396 240.792 27.3996C239.703 26.6546 238.064 26.2882 235.887 26.2882C235.1 26.2882 234.275 26.3193 233.414 26.3814C232.689 26.4259 231.968 26.5171 231.255 26.6546V50.7573C232.099 50.9407 232.955 51.0652 233.816 51.1298C234.818 51.2105 235.776 51.254 236.685 51.254C238.419 51.3221 240.135 50.8913 241.633 50.0122C242.241 49.619 242.734 49.0698 243.06 48.4215C243.386 47.7731 243.534 47.0491 243.488 46.3242C243.536 45.6576 243.415 44.9896 243.135 44.3834C242.854 43.7772 242.425 43.2527 241.886 42.8596C240.843 42.1353 239.25 41.7731 237.106 41.7731ZM241.738 35.08V41.7731H227.978V35.08H241.738Z" fill="white"/>
  <path d="M267.897 26.965C272.177 26.965 275.593 27.8632 278.145 29.6596C280.697 31.4561 281.971 34.2335 281.967 37.9919V52.0549C282.006 52.9531 281.72 53.8351 281.163 54.5385C280.595 55.2118 279.904 55.7702 279.128 56.1838C277.694 57.0014 276.145 57.5959 274.533 57.9471C272.476 58.3955 270.374 58.6038 268.268 58.568C264.075 58.568 260.734 57.7402 258.244 56.0845C255.753 54.4288 254.517 51.9701 254.533 48.7084C254.533 45.902 255.397 43.7454 257.124 42.2388C258.852 40.7321 261.422 39.8132 264.836 39.482L273.043 38.6128V37.8677C273.085 37.2583 272.954 36.6494 272.665 36.1118C272.376 35.5743 271.941 35.1303 271.41 34.8316C269.959 34.1389 268.358 33.8209 266.753 33.9065C265.203 33.9048 263.658 34.0924 262.152 34.4653C260.775 34.7918 259.424 35.2257 258.114 35.7629C257.571 35.3735 257.134 34.8524 256.846 34.248C256.503 33.5864 256.323 32.8518 256.32 32.1059C256.32 30.3716 257.267 29.1133 259.159 28.3309C260.494 27.8245 261.885 27.4846 263.302 27.3189C264.824 27.0938 266.359 26.9755 267.897 26.965ZM268.268 51.7445C269.211 51.7447 270.152 51.6511 271.076 51.4651C271.773 51.369 272.45 51.1593 273.08 50.8442V44.8713L267.897 45.368C266.734 45.3842 265.591 45.6802 264.564 46.231C264.173 46.4513 263.85 46.7762 263.631 47.1698C263.413 47.5633 263.308 48.01 263.327 48.46C263.315 48.9236 263.415 49.3833 263.619 49.7996C263.822 50.216 264.123 50.5765 264.496 50.8504C265.288 51.4465 266.545 51.7445 268.268 51.7445Z" fill="white"/>
  <path d="M314.236 38.3644V44.1883H305.04V38.6749C305.04 37.1475 304.599 36.0216 303.717 35.2973C302.716 34.5392 301.482 34.1569 300.229 34.2169C299.268 34.2054 298.31 34.3415 297.39 34.6205C296.581 34.865 295.796 35.1851 295.046 35.5767V44.1883H285.912V34.5274C285.877 33.6256 286.103 32.7329 286.562 31.9569C287.044 31.2212 287.676 30.5968 288.417 30.1253C289.975 29.1074 291.685 28.3445 293.482 27.8653C295.696 27.2446 297.986 26.9415 300.285 26.965C304.725 26.965 308.159 27.946 310.588 29.908C313.016 31.87 314.232 34.6888 314.236 38.3644ZM285.912 41.3385H295.046V57.5684C294.48 57.723 293.903 57.8371 293.321 57.9099C292.524 58.0179 291.72 58.0698 290.915 58.0651C289.184 58.0651 287.922 57.7547 287.118 57.1338C286.314 56.5129 285.912 55.4015 285.912 53.7934V41.3385ZM305.04 41.3385H314.236V57.5684C313.67 57.7224 313.093 57.8365 312.511 57.9099C311.714 58.0179 310.91 58.0698 310.105 58.0651C308.374 58.0651 307.098 57.7547 306.277 57.1338C305.455 56.5129 305.04 55.4015 305.04 53.7934V41.3385Z" fill="white"/>
  <path d="M337.495 50.2916V31.6651H346.63V51.434C346.654 52.3031 346.44 53.1622 346.011 53.9176C345.513 54.6799 344.836 55.307 344.038 55.743C342.693 56.5932 341.236 57.2494 339.709 57.6926C334.728 59.0612 329.437 58.7471 324.651 56.7985C322.234 55.7042 320.225 53.8697 318.912 51.5582C317.576 49.2299 316.908 46.3242 316.908 42.8658C316.908 39.2275 317.596 36.2431 318.973 33.9127C320.271 31.6526 322.208 29.8308 324.539 28.6786C326.962 27.5039 329.623 26.9088 332.313 26.9402C333.647 26.9217 334.977 27.0889 336.265 27.4369C337.258 27.7049 338.212 28.1015 339.103 28.6166V36.1976C338.413 35.6323 337.645 35.172 336.821 34.8316C335.784 34.4026 334.671 34.1913 333.55 34.2107C332.216 34.1858 330.898 34.5043 329.722 35.1358C328.588 35.7951 327.689 36.7937 327.149 37.9919C326.481 39.5351 326.166 41.2091 326.228 42.8907C326.228 45.7881 326.875 47.9136 328.169 49.2672C328.856 49.9615 329.681 50.5027 330.59 50.8558C331.499 51.2088 332.471 51.3656 333.445 51.3161C334.245 51.3226 335.041 51.2075 335.807 50.9746C336.393 50.8103 336.959 50.5812 337.495 50.2916ZM346.63 33.4098L337.495 33.4719V17.3289C338.042 17.1644 338.6 17.0399 339.165 16.9563C339.961 16.8278 340.765 16.7655 341.571 16.7701C343.377 16.7701 344.673 17.0805 345.461 17.7014C346.248 18.3223 346.638 19.4585 346.63 21.1101V33.4098Z" fill="white"/>
  <path d="M350.52 19.3468C350.505 18.6895 350.626 18.0363 350.875 17.4283C351.124 16.8203 351.496 16.2706 351.967 15.8139C352.978 14.8986 354.291 14.3919 355.653 14.3919C357.014 14.3919 358.327 14.8986 359.338 15.8139C359.803 16.2745 360.168 16.8255 360.413 17.433C360.657 18.0404 360.776 18.6917 360.761 19.3468C360.726 20.3539 360.4 21.3291 359.823 22.1536C359.246 22.9781 358.442 23.6164 357.511 23.9908C356.579 24.3652 355.558 24.4595 354.574 24.2622C353.59 24.0649 352.684 23.5845 351.967 22.8796C351.501 22.4187 351.133 21.8683 350.884 21.2612C350.636 20.6542 350.512 20.0031 350.52 19.3468ZM360.204 46.0448H351.076V28.2689C351.631 28.1022 352.197 27.9776 352.771 27.8963C353.576 27.7686 354.391 27.7063 355.207 27.7101C356.976 27.7101 358.252 28.0102 359.035 28.6103C359.819 29.2105 360.208 30.3571 360.204 32.05V46.0448ZM351.076 41.2764H360.204V57.5684C359.66 57.728 359.104 57.8422 358.541 57.9099C357.743 58.0179 356.939 58.0698 356.135 58.0651C354.366 58.0651 353.08 57.7547 352.276 57.1338C351.472 56.5129 351.076 55.4015 351.076 53.7934V41.2764Z" fill="white"/>
  <path d="M373.655 42.841H364.583V20.5885C364.997 20.4643 365.572 20.3278 366.314 20.1849C367.087 20.0379 367.872 19.9651 368.658 19.9676C370.427 19.9676 371.701 20.2781 372.48 20.899C373.259 21.5198 373.651 22.654 373.655 24.3014V42.841ZM364.583 41.2888H373.655V47.9074C373.618 48.39 373.7 48.8744 373.894 49.3174C374.088 49.7605 374.388 50.1485 374.768 50.4468C375.708 51.0374 376.809 51.3195 377.916 51.254C378.591 51.2468 379.264 51.174 379.926 51.0367C380.547 50.9171 381.155 50.7404 381.744 50.5089C382.098 50.9229 382.399 51.3797 382.641 51.8687C382.915 52.4503 383.05 53.088 383.036 53.7313C383.045 54.4051 382.893 55.0712 382.593 55.674C382.293 56.2767 381.853 56.7985 381.311 57.1959C380.161 58.1065 378.227 58.5618 375.51 58.5618C372.053 58.5618 369.375 57.7733 367.471 56.2087C365.566 54.644 364.601 52.0798 364.601 48.5283L364.583 41.2888ZM370.383 35.6512V28.5607H382.232C382.49 29.0106 382.697 29.4874 382.851 29.9825C383.06 30.6448 383.163 31.3366 383.154 32.0314C383.242 33.0175 382.945 33.9992 382.325 34.7695C382.03 35.0621 381.678 35.2899 381.29 35.4385C380.903 35.5871 380.488 35.6532 380.074 35.6325L370.383 35.6512Z" fill="white"/>
  <path d="M410.019 48.9567C410.074 50.3282 409.793 51.6922 409.201 52.9295C408.609 54.1667 407.724 55.2393 406.623 56.0534C404.36 57.7671 401.062 58.6239 396.729 58.6239C393.352 58.6239 390.575 58.1272 388.398 57.1338C386.221 56.1404 385.131 54.6751 385.127 52.7379C385.107 51.9481 385.299 51.1674 385.683 50.4779C386.036 49.8588 386.535 49.3364 387.137 48.9567C388.428 49.6954 389.781 50.3187 391.181 50.8194C392.867 51.3834 394.637 51.6543 396.413 51.6203C399.413 51.6203 400.915 50.7573 400.915 49.0188C400.929 48.6821 400.863 48.347 400.724 48.0406C400.584 47.7342 400.374 47.4652 400.111 47.2555C399.318 46.7223 398.408 46.3919 397.458 46.2931L394.867 45.6722C391.569 44.9644 389.112 43.88 387.495 42.4188C385.879 40.9577 385.067 38.9439 385.059 36.3776C385.023 35.0255 385.322 33.6856 385.931 32.4791C386.54 31.2725 387.439 30.2374 388.547 29.4672C390.868 27.7535 394.003 26.8967 397.953 26.8967C399.771 26.8905 401.583 27.0989 403.352 27.5176C404.76 27.8095 406.081 28.4259 407.211 29.3182C407.657 29.6719 408.018 30.1228 408.266 30.637C408.513 31.1511 408.641 31.715 408.64 32.286C408.656 33.0403 408.486 33.7869 408.145 34.4591C407.83 35.0636 407.389 35.5929 406.852 36.0113C406.195 35.6316 405.501 35.3196 404.781 35.08C403.797 34.7346 402.788 34.4668 401.763 34.279C400.756 34.0786 399.733 33.9747 398.708 33.9686C397.526 33.9111 396.347 34.1123 395.251 34.5584C394.882 34.6978 394.566 34.9479 394.344 35.2746C394.123 35.6013 394.008 35.9887 394.014 36.3838C394.017 36.6544 394.082 36.9206 394.205 37.1618C394.327 37.4029 394.503 37.6126 394.719 37.7746C395.46 38.2788 396.306 38.6078 397.192 38.737L399.666 39.3579C403.327 40.1857 405.962 41.3737 407.57 42.9217C408.377 43.6987 409.012 44.6376 409.434 45.6774C409.856 46.7172 410.055 47.8346 410.019 48.9567Z" fill="white"/>
</svg>